<svg xmlns="http://www.w3.org/2000/svg" version="1.1" xmlns:xlink="http://www.w3.org/1999/xlink" viewBox="0 0 200 200"><rect width="200" height="200" fill="url('#gradient')"></rect><defs><linearGradient id="gradient" gradientTransform="rotate(45 0.5 0.5)"><stop offset="0%" stop-color="#7dabaa"></stop><stop offset="100%" stop-color="#f5e8ce"></stop></linearGradient></defs><g><g fill="#2c1f37" transform="matrix(2.4750906405263864,0,0,2.4750906405263864,9.709205965764,118.57543753508322)" stroke="#15374d" stroke-width="0.2"><path d="M4.95 0L1.65 0L1.65-8.28L0.12-8.28L0.12-10.57L1.65-10.57L1.65-11.41Q1.65-13.21 2.71-14.21Q3.78-15.21 5.70-15.21L5.70-15.21Q6.41-15.21 7.25-15L7.25-15L7.26-12.58Q6.95-12.67 6.45-12.67L6.45-12.67Q4.95-12.67 4.95-11.38L4.95-11.38L4.95-10.57L7.01-10.57L7.01-8.28L4.95-8.28L4.95 0ZM11.64-10.57L11.64 0L8.34 0L8.34-10.57L11.64-10.57ZM8.14-13.29L8.14-13.29Q8.14-13.99 8.65-14.44Q9.16-14.89 9.97-14.89Q10.78-14.89 11.29-14.44Q11.80-13.99 11.80-13.29Q11.80-12.59 11.29-12.14Q10.78-11.69 9.97-11.69Q9.16-11.69 8.65-12.14Q8.14-12.59 8.14-13.29ZM14.21-13.19L17.50-13.19L17.50-10.57L19.24-10.57L19.24-8.28L17.50-8.28L17.50-3.45Q17.50-2.85 17.71-2.62Q17.93-2.38 18.56-2.38L18.56-2.38Q19.05-2.38 19.38-2.44L19.38-2.44L19.38-0.09Q18.50 0.20 17.53 0.20L17.53 0.20Q15.83 0.20 15.02-0.61Q14.21-1.41 14.21-3.04L14.21-3.04L14.21-8.28L12.86-8.28L12.86-10.57L14.21-10.57L14.21-13.19ZM26.96-7.40L26.96-4.85L21.09-4.85L21.09-7.40L26.96-7.40ZM35.06-2.97L35.06-2.97Q35.06-3.39 34.62-3.64Q34.18-3.90 32.95-4.17Q31.72-4.44 30.92-4.89Q30.12-5.33 29.70-5.97Q29.28-6.60 29.28-7.42L29.28-7.42Q29.28-8.88 30.48-9.82Q31.68-10.76 33.62-10.76L33.62-10.76Q35.71-10.76 36.98-9.81Q38.25-8.87 38.25-7.32L38.25-7.32L34.95-7.32Q34.95-8.59 33.61-8.59L33.61-8.59Q33.10-8.59 32.74-8.31Q32.39-8.02 32.39-7.59L32.39-7.59Q32.39-7.15 32.82-6.88Q33.25-6.60 34.19-6.43Q35.14-6.25 35.85-6.01L35.85-6.01Q38.23-5.19 38.23-3.07L38.23-3.07Q38.23-1.62 36.95-0.71Q35.66 0.20 33.62 0.20L33.62 0.20Q32.27 0.20 31.20-0.29Q30.14-0.78 29.54-1.62Q28.95-2.46 28.95-3.39L28.95-3.39L32.02-3.39Q32.04-2.66 32.51-2.32Q32.98-1.98 33.71-1.98L33.71-1.98Q34.38-1.98 34.72-2.26Q35.06-2.53 35.06-2.97ZM40.31-13.19L43.60-13.19L43.60-10.57L45.34-10.57L45.34-8.28L43.60-8.28L43.60-3.45Q43.60-2.85 43.82-2.62Q44.03-2.38 44.67-2.38L44.67-2.38Q45.16-2.38 45.49-2.44L45.49-2.44L45.49-0.09Q44.60 0.20 43.63 0.20L43.63 0.20Q41.93 0.20 41.12-0.61Q40.31-1.41 40.31-3.04L40.31-3.04L40.31-8.28L38.96-8.28L38.96-10.57L40.31-10.57L40.31-13.19ZM55.88 0L52.59 0Q52.41-0.32 52.28-0.95L52.28-0.95Q51.37 0.20 49.74 0.20L49.74 0.20Q48.24 0.20 47.20-0.71Q46.15-1.61 46.15-2.98L46.15-2.98Q46.15-4.70 47.42-5.58Q48.69-6.46 51.11-6.46L51.11-6.46L52.13-6.46L52.13-7.01Q52.13-8.47 50.87-8.47L50.87-8.47Q49.70-8.47 49.70-7.31L49.70-7.31L46.41-7.31Q46.41-8.85 47.71-9.80Q49.01-10.76 51.04-10.76Q53.06-10.76 54.23-9.78Q55.40-8.79 55.43-7.07L55.43-7.07L55.43-2.39Q55.45-0.94 55.88-0.17L55.88-0.17L55.88 0ZM50.53-2.15L50.53-2.15Q51.14-2.15 51.55-2.41Q51.95-2.68 52.13-3.01L52.13-3.01L52.13-4.70L51.17-4.70Q49.45-4.70 49.45-3.15L49.45-3.15Q49.45-2.71 49.76-2.43Q50.06-2.15 50.53-2.15ZM57.79-13.19L61.08-13.19L61.08-10.57L62.82-10.57L62.82-8.28L61.08-8.28L61.08-3.45Q61.08-2.85 61.30-2.62Q61.51-2.38 62.15-2.38L62.15-2.38Q62.64-2.38 62.97-2.44L62.97-2.44L62.97-0.09Q62.08 0.20 61.11 0.20L61.11 0.20Q59.41 0.20 58.60-0.61Q57.79-1.41 57.79-3.04L57.79-3.04L57.79-8.28L56.45-8.28L56.45-10.57L57.79-10.57L57.79-13.19ZM69.65-2.97L69.65-2.97Q69.65-3.39 69.21-3.64Q68.77-3.90 67.54-4.17Q66.31-4.44 65.51-4.89Q64.71-5.33 64.29-5.97Q63.87-6.60 63.87-7.42L63.87-7.42Q63.87-8.88 65.07-9.82Q66.27-10.76 68.21-10.76L68.21-10.76Q70.30-10.76 71.57-9.81Q72.84-8.87 72.84-7.32L72.84-7.32L69.54-7.32Q69.54-8.59 68.20-8.59L68.20-8.59Q67.69-8.59 67.33-8.31Q66.98-8.02 66.98-7.59L66.98-7.59Q66.98-7.15 67.41-6.88Q67.84-6.60 68.78-6.43Q69.73-6.25 70.44-6.01L70.44-6.01Q72.82-5.19 72.82-3.07L72.82-3.07Q72.82-1.62 71.54-0.71Q70.25 0.20 68.21 0.20L68.21 0.20Q66.86 0.20 65.79-0.29Q64.73-0.78 64.13-1.62Q63.54-2.46 63.54-3.39L63.54-3.39L66.61-3.39Q66.63-2.66 67.10-2.32Q67.57-1.98 68.30-1.98L68.30-1.98Q68.97-1.98 69.31-2.26Q69.65-2.53 69.65-2.97Z"></path></g></g></svg>